<svg xmlns="http://www.w3.org/2000/svg" width="1600" height="300" viewBox="0 0 1600 300"><defs><style>.cls-1{fill:#a63921;}.cls-2{fill:#f7921e;}.cls-3{fill:#fde9d2;}.cls-4{fill:#c69c6d;}.cls-5{fill:#ffcade;}</style></defs><g id="Layer_2" data-name="Layer 2"><path class="cls-1" d="M270.39,248.21c-11,0-26.55-1.11-36.09-1.11h-7.15c-21.15,0-30.37,1.11-34,1.11-1,0-1.27-.48-1.27-3.34s.32-3.34,1.27-3.5l7-1.11c1.59-.32,1.91-.64,1.91-2.23V141.68c0-1.59-.32-1.91-1.91-2.22l-7-1.12c-1-.16-1.27-.63-1.27-3.49s.32-3.34,1.27-3.34c3.66,0,13.83,1.11,35,1.11h6.2c11.13,0,21.31-1.11,33.71-1.11,23.85,0,37.05,11,37.05,25,0,12.88-8.91,23.53-26.72,26.55v.64c21.63,1.59,35.3,13.67,35.3,32.27C313.64,236.6,296.31,248.21,270.39,248.21ZM245.75,139h-.64c-1.59,0-1.9.32-1.9,1.91v43.88h3.65c9.54,0,14.79-9.06,14.79-20.35C261.65,150.11,256.08,139,245.75,139Zm-.16,53h-2.38v36.88c0,4.77.95,7.32,2.86,9.22,1.59,1.59,5.09,2.71,8.42,2.71,8.91,0,14-6.84,14-18.61C268.49,203.37,256.56,191.93,245.59,191.93Z"/><path class="cls-2" d="M323.5,244.87c0-2.86.32-3.34,1.27-3.5l5.41-1.11c1.59-.32,1.91-.64,1.91-2.23V196.22c0-1.59-.32-1.75-1.91-2.07l-5.41-1c-.95-.16-1.27-.48-1.27-3s.32-2.71,1.27-3c13-5.09,27.19-13.2,39.91-21.95a2.15,2.15,0,0,1,1.27-.47c1.11,0,4.14,1.27,4.14,2.38,0,2.7-1.28,13.52-1.28,33.07V238c0,1.59.32,1.91,1.91,2.23l5.41,1.11c.95.16,1.27.64,1.27,3.5s-.32,3.34-1.27,3.34c-3.66,0-14-1.11-25.6-1.11s-22.26,1.11-25.76,1.11C323.82,248.21,323.5,247.73,323.5,244.87ZM334.31,139.3c0-10.34,7.63-18.29,18.29-18.29s18.28,8,18.28,18.29-7.63,18.28-18.28,18.28S334.31,149.63,334.31,139.3Z"/><path class="cls-2" d="M388.21,217.68c3,0,3.5.32,4,1.59,3.19,7.95,5.73,14,8.43,18.61s6.2,6,11,6c7,0,11.13-3.5,11.13-9.38,0-5.73-3-9.54-14.31-12.88-19.39-5.73-24.16-14.63-24.16-28.3,0-15.74,14.15-28.46,40.06-28.46A135.44,135.44,0,0,1,442,166.33c3.18.47,3.5.79,3.5,4v18.92c0,1.27-.32,1.59-3.34,1.59s-3.5-.32-4-1.59l-4.93-12.56c-1.59-3.81-4.3-6-9.54-6-5.41,0-9.54,2.23-9.54,8.11,0,5.25,2.54,8,13.19,11.76,18,6.36,23.69,15.74,23.69,27.83,0,18.6-14.62,31.32-40.06,31.32A75.57,75.57,0,0,1,386.62,246c-3.18-.95-3.5-1.27-3.5-4.45,0-5.88.8-14.94,1.59-22.26C384.87,218,385.35,217.68,388.21,217.68Z"/><path class="cls-2" d="M499,176.5V208c0,14.79,4,18.45,10.81,18.45,2.07,0,3.18-1,4-1,1.75,0,4.45,2.55,3.81,4.14a32.66,32.66,0,0,1-29.89,20c-16.69,0-25.44-10.65-25.44-27.82V178.25c0-1.59-.16-1.75-1.91-2.07l-5.72-.79c-1.11-.16-1.27-.48-1.27-3.18s.32-3.34,1.27-3.5c16.7-4,25.76-9.54,36.09-20.35,1-1,1.12-1.27,3.66-1.27s3,.16,3.18,1.27a179.26,179.26,0,0,1,1.27,18.6l18-.16c1.59,0,2.22.8,2.22,5.09s-.63,4.77-2.22,4.77C511.27,176.66,504.44,176.66,499,176.5Z"/><path class="cls-2" d="M602.06,181.59c0,15.11-8.74,22.58-16.22,22.58-2.86,0-5.24-1-8.74-3.34-3.82-2.7-7-4.13-9.06-4.13a3.6,3.6,0,0,0-2.07.47v41c0,1.59.32,1.91,1.91,2.07l10.17,1.11c1,.16,1.28.64,1.28,3.5s-.32,3.34-1.28,3.34c-3.65,0-14-1.11-30.37-1.11-11.6,0-22.1,1.11-25.75,1.11-1,0-1.27-.32-1.27-3.34s.31-3.34,1.27-3.5l5.4-1.11c1.59-.32,1.91-.48,1.91-2.07v-42c0-1.59-.32-1.75-1.91-2.07l-5.4-1c-1-.16-1.27-.48-1.27-3s.31-2.71,1.27-3c13-5.09,25.44-12.88,38.16-21.95a2.13,2.13,0,0,1,1.27-.47c1.11,0,4.13,1.27,4.13,2.38,0,2.55-.63,15.42-.63,25.76,4.77-15.42,13.67-27.19,23.37-27.19C597.77,165.69,602.06,172.85,602.06,181.59Z"/><path class="cls-2" d="M655.33,165.69c27.66,0,46.74,15.58,46.74,41.34,0,27-20.51,42.61-49.92,42.61-27.67,0-46.75-15.58-46.75-41.34C605.4,181.27,625.91,165.69,655.33,165.69Zm1.27,75.68c1.91,1.91,3.34,2.39,4.93,2.39,3.18,0,5.88-2.07,5.88-10.5,0-16.69-9.7-52.46-16.54-59.3-1.9-1.91-3.34-2.39-4.93-2.39-3.17,0-5.88,2.07-5.88,10.5C640.06,198.76,649.76,234.54,656.6,241.37Z"/><path class="cls-1" d="M824,248.21c-11,0-26.55-1.11-36.09-1.11h-7.16c-21.14,0-30.36,1.11-34,1.11-1,0-1.27-.48-1.27-3.34s.32-3.34,1.27-3.5l7-1.11c1.59-.32,1.9-.64,1.9-2.23V141.68c0-1.59-.31-1.91-1.9-2.22l-7-1.12c-1-.16-1.27-.63-1.27-3.49s.32-3.34,1.27-3.34c3.66,0,13.83,1.11,35,1.11h6.2c11.13,0,21.3-1.11,33.71-1.11,23.85,0,37,11,37,25,0,12.88-8.9,23.53-26.71,26.55v.64c21.63,1.59,35.3,13.67,35.3,32.27C867.27,236.6,849.94,248.21,824,248.21ZM799.38,139h-.64c-1.59,0-1.91.32-1.91,1.91v43.88h3.66c9.54,0,14.79-9.06,14.79-20.35C815.28,150.11,809.71,139,799.38,139Zm-.16,53h-2.39v36.88c0,4.77,1,7.32,2.87,9.22,1.59,1.59,5.08,2.71,8.42,2.71,8.91,0,14-6.84,14-18.61C822.11,203.37,810.19,191.93,799.22,191.93Z"/><path class="cls-2" d="M922.92,229.45c-5.09,12.72-14.79,20.19-26.4,20.19-12.24,0-20.66-9.86-20.66-22.26,0-9.7,3-15.26,11.28-19.71,7.48-4,19.4-7.48,34.51-10.82v-5.08c0-11.45-3.5-18.45-9.54-18.45-1.59,0-2.23.48-2.55,2.55l-1.11,7.63c-1.59,11.45-8.27,16.85-17.17,16.85-4.93,0-9.38-3-9.38-8.9,0-10.18,19.71-25.76,44-25.76,21.62,0,31.8,8.59,31.8,24V219c0,12.72,2.54,13,6.84,10.18.47-.32.63-.48.95-.48,1.43,0,3.82,3.5,3.82,4.46,0,.79-.64,1.43-1.59,2.38l-.64.64c-9.54,9.54-16.38,13.51-24.17,13.51C933.57,249.64,926.89,243.28,922.92,229.45Zm-1.27-2.39V215.77a10.81,10.81,0,0,0-3.34-7.94,9.74,9.74,0,0,0-6.2-3c-3.18,0-4.61,1.91-4.61,6.68,0,8.91,6,16.7,11.28,16.7A3.73,3.73,0,0,0,921.65,227.06Z"/><path class="cls-2" d="M1072.22,205.44c0,27.67-19.24,43.56-45.48,43.56-13.67,0-25.59-4.13-33.86-10.33a102.66,102.66,0,0,0-10.65,9.22c-.8.8-1.12,1-1.75,1-1.59,0-4.61-1.28-4.61-2.07,0-1.91,1.59-8.43,1.59-24V156.15c0-1.59-.32-1.75-1.91-2.07l-5.41-1c-.95-.16-1.27-.48-1.27-3s.32-2.7,1.27-3c13-5.09,27.19-13.2,39.91-21.94a2.12,2.12,0,0,1,1.27-.48c1.11,0,4.14,1.27,4.14,2.38,0,2.71-1.28,13.52-1.28,33.08v21.14c5.57-11,14.79-15.58,25-15.58C1055.68,165.69,1072.22,179.05,1072.22,205.44Zm-35.14,29.73c0-14-8.59-39.59-17.17-48.17-1.59-1.59-2.7-1.91-3.82-1.91a3.12,3.12,0,0,0-1.91.63v18.92c0,15.11,6.21,31.17,11.61,36.57,2.07,2.07,3.5,2.71,5.73,2.71C1034.85,243.92,1037.08,240.9,1037.08,235.17Z"/><path class="cls-2" d="M1184.31,234.54c1,.16,1.27.63,1.27,3.34s-.31,3-1.27,3.18c-9.54,1.9-22.26,4.92-34.18,8.42-1.28.32-5.09-.63-5.57-2.22a107.36,107.36,0,0,1-3.18-17.18c-4.13,9.54-14.31,19.56-28.46,19.56-16.69,0-27-10.65-27-27.82V177.14c0-1.59-.32-1.91-1.91-2.23l-5.4-1.27c-1-.16-1.27-.64-1.27-3.34s.47-3.66,1.43-3.66c14-.31,41.65-.63,42.77-.63a2.7,2.7,0,0,1,2.38,2.38c0,2.71-1.27,11.77-1.27,31.33V208c0,14.79,3.5,20,14.15,20a11.61,11.61,0,0,0,3.5-.48v-50.4c0-1.59-.32-1.91-1.91-2.23l-5.4-1.27c-1-.16-1.28-.64-1.28-3.34s.48-3.66,1.43-3.66c14-.31,41.66-.63,42.77-.63a2.7,2.7,0,0,1,2.39,2.38c0,2.71-1.27,11.77-1.27,31.33V231c0,1.59.32,1.91,1.91,2.22l5.4,1.28Z"/><path class="cls-2" d="M1196.08,217.68c3,0,3.5.32,4,1.59,3.18,7.95,5.73,14,8.43,18.61s6.2,6,11,6c7,0,11.13-3.5,11.13-9.38,0-5.73-3-9.54-14.31-12.88-19.4-5.73-24.17-14.63-24.17-28.3,0-15.74,14.15-28.46,40.07-28.46a135.58,135.58,0,0,1,17.65,1.43c3.18.47,3.5.79,3.5,4v18.92c0,1.27-.32,1.59-3.34,1.59s-3.5-.32-4-1.59l-4.93-12.56c-1.59-3.81-4.29-6-9.54-6s-9.53,2.23-9.53,8.11c0,5.25,2.54,8,13.19,11.76,18,6.36,23.69,15.74,23.69,27.83,0,18.6-14.63,31.32-40.07,31.32a75.51,75.51,0,0,1-24.32-3.66c-3.18-.95-3.5-1.27-3.5-4.45,0-5.88.8-14.94,1.59-22.26C1192.74,218,1193.22,217.68,1196.08,217.68Z"/><path class="cls-2" d="M1372.72,244.87c0,2.86-.31,3.34-1.27,3.34-3.65,0-14-1.11-25.6-1.11s-21,1.11-24.64,1.11c-1,0-1.27-.48-1.27-3.34s.32-3.18,1.27-3.5l4.29-1.11c1.59-.48,1.91-.64,1.91-2.23V206.71c0-14.78-3.5-20-14.15-20a11.61,11.61,0,0,0-3.5.48V238c0,1.59.32,1.75,1.91,2.23l4.29,1.11c1,.32,1.27.64,1.27,3.5s-.31,3.34-1.27,3.34c-3.65,0-12.88-1.11-24.48-1.11s-22.1,1.11-25.76,1.11c-1,0-1.27-.48-1.27-3.34s.32-3.34,1.27-3.5l5.41-1.11c1.59-.32,1.9-.64,1.9-2.23V156.15c0-1.59-.31-1.75-1.9-2.07l-5.41-1c-1-.16-1.27-.48-1.27-3s.32-2.7,1.27-3c13-5.09,27.19-13.2,39.91-21.94a2.08,2.08,0,0,1,1.27-.48c1.11,0,4.13,1.27,4.13,2.38,0,2.71-1.27,13.52-1.27,33.08v22.1c4.77-8.59,14.47-16.54,27.35-16.54,16.69,0,27,10,27,27.19V238c0,1.59.32,1.91,1.91,2.23l5.4,1.11C1372.41,241.53,1372.72,242,1372.72,244.87Z"/><path class="cls-2" d="M1496.42,244.87c0,2.86-.32,3.34-1.27,3.34-3.66,0-16.53-1.11-31.32-1.11-13.2,0-26.24,1.11-29.89,1.11-1,0-1.27-.48-1.27-3.34s.31-3.34,1.27-3.5l5.24-.79c1.59-.32,1.43-1,.32-2.39l-18-25.75V238c0,1.59.31,1.91,1.9,2.23l4.61,1.11c1,.16,1.28.64,1.28,3.5s-.32,3.34-1.28,3.34c-3.65,0-13.19-1.11-24.8-1.11s-22.1,1.11-25.76,1.11c-1,0-1.27-.48-1.27-3.34s.32-3.34,1.27-3.5l5.41-1.11c1.59-.32,1.91-.64,1.91-2.23V156.15c0-1.59-.32-1.75-1.91-2.07l-5.41-1c-1-.16-1.27-.48-1.27-3s.32-2.7,1.27-3c13-5.09,27.19-13.2,39.91-21.94a2.12,2.12,0,0,1,1.27-.48c1.12,0,4.14,1.27,4.14,2.38,0,2.71-1.27,13.52-1.27,33.08v45.31l11.76-9.22c22.1-17.33,22.42-18.92,19.24-19.88l-11-3c-1-.32-1.27-.63-1.27-3.5s.31-3.33,1.27-3.33c3.66,0,16.69,1.11,25.12,1.11s21.15-1.11,24.8-1.11c1,0,1.28.47,1.28,3.33s-.32,3.18-1.28,3.5l-12.4,3.66c-3.18,1-7.31,2.86-28.46,18.92l-.48.48,36.41,41.81a5.13,5.13,0,0,0,3.66,2.23l4.93,1C1496.1,241.53,1496.42,242,1496.42,244.87Z"/><path class="cls-2" d="M1544.76,229.45c-5.09,12.72-14.79,20.19-26.39,20.19-12.25,0-20.67-9.86-20.67-22.26,0-9.7,3-15.26,11.28-19.71,7.48-4,19.4-7.48,34.51-10.82v-5.08c0-11.45-3.5-18.45-9.54-18.45-1.59,0-2.23.48-2.55,2.55l-1.11,7.63c-1.59,11.45-8.27,16.85-17.17,16.85-4.93,0-9.38-3-9.38-8.9,0-10.18,19.71-25.76,44-25.76,21.62,0,31.8,8.59,31.8,24V219c0,12.72,2.54,13,6.84,10.18.47-.32.63-.48.95-.48,1.43,0,3.82,3.5,3.82,4.46,0,.79-.64,1.43-1.59,2.38l-.64.64c-9.54,9.54-16.38,13.51-24.17,13.51C1555.41,249.64,1548.73,243.28,1544.76,229.45Zm-1.27-2.39V215.77a10.81,10.81,0,0,0-3.34-7.94,9.74,9.74,0,0,0-6.2-3c-3.18,0-4.61,1.91-4.61,6.68,0,8.91,6,16.7,11.29,16.7A3.7,3.7,0,0,0,1543.49,227.06Z"/><rect class="cls-1" x="188.7" y="264.67" width="1407" height="28" rx="12"/></g><g id="Layer_1" data-name="Layer 1"><path class="cls-2" d="M168.09,213.81c9-87.74-22.45-70.66-19.94-103.69C154.13,31.36,142.41.46,89.82.46s-73.43,32.9-65.3,110.66c3.44,32.81-28.91,12-17.94,106.67,3,26.09,14.7,41.84,24.88,51.35-3.34,2.95-6.87,6.4-10.92,10.46-13,13,29.94,19.94,68.79,19.94,35.89,0,76.76-7,63.8-18.94-4.67-4.31-8.66-8.15-12.62-11.48C152.33,259.25,165.32,240.86,168.09,213.81Z"/></g><g id="Layer_3" data-name="Layer 3"><circle class="cls-1" cx="45.46" cy="65.26" r="6.98"/><circle class="cls-1" cx="50.44" cy="52.3" r="6.98"/><circle class="cls-1" cx="58.42" cy="41.33" r="6.98"/><circle class="cls-1" cx="69.39" cy="33.36" r="6.98"/><circle class="cls-1" cx="82.35" cy="29.37" r="6.98"/><circle class="cls-1" cx="96.3" cy="29.37" r="6.98"/><circle class="cls-1" cx="109.26" cy="33.36" r="6.98"/><circle class="cls-1" cx="120.23" cy="41.33" r="6.98"/><circle class="cls-1" cx="128.21" cy="52.3" r="6.98"/><circle class="cls-1" cx="132.19" cy="65.26" r="6.98"/><circle class="cls-1" cx="132.19" cy="79.22" r="6.98"/><circle class="cls-1" cx="128.21" cy="92.18" r="6.98"/><circle class="cls-1" cx="120.23" cy="103.14" r="6.98"/><circle class="cls-1" cx="108.27" cy="111.12" r="6.98"/><circle class="cls-1" cx="95.31" cy="115.11" r="6.98"/><circle class="cls-1" cx="81.35" cy="115.11" r="6.98"/><circle class="cls-1" cx="68.39" cy="111.12" r="6.98"/><circle class="cls-1" cx="57.42" cy="103.14" r="6.98"/><circle class="cls-1" cx="49.45" cy="92.18" r="6.98"/><circle class="cls-1" cx="45.46" cy="79.22" r="6.98"/></g><g id="Layer_5" data-name="Layer 5"><path class="cls-3" d="M90.13,28.4a23.82,23.82,0,0,1,1.19,7.45c0,12.94-10.24,23.43-22.87,23.43a22.64,22.64,0,0,1-17.52-8.37,44,44,0,0,0-5.47,21.33c0,24.22,19.42,43.86,43.37,43.86s43.36-19.64,43.36-43.86A43.63,43.63,0,0,0,90.13,28.4Z"/><path class="cls-4" d="M68.45,59.28c12.63,0,22.87-10.49,22.87-23.43a23.82,23.82,0,0,0-1.19-7.45c-.43,0-.86,0-1.3,0a43.28,43.28,0,0,0-37.9,22.54A22.64,22.64,0,0,0,68.45,59.28Z"/><path class="cls-4" d="M109.48,59.81C96.69,59.81,86.32,49.14,86.32,36a24.49,24.49,0,0,1,1.2-7.57c.44,0,.88,0,1.32,0a43.78,43.78,0,0,1,38.37,22.92A22.83,22.83,0,0,1,109.48,59.81Z"/></g><g id="Layer_6" data-name="Layer 6"><circle cx="100.83" cy="70.07" r="3.92"/><circle cx="78.5" cy="69.86" r="3.92"/><circle class="cls-5" cx="69.39" cy="83.2" r="8.97"/><circle class="cls-5" cx="110.26" cy="83.2" r="8.97"/><circle class="cls-1" cx="86.7" cy="196.67" r="60"/><polygon class="cls-2" points="119.45 241.63 86.55 224.76 54 242.29 59.89 205.79 33.16 180.25 69.69 174.57 85.71 141.26 102.41 174.24 139.04 179.19 112.83 205.26 119.45 241.63"/></g></svg>